<?xml version="1.0" encoding="UTF-8"?>
<svg xmlns="http://www.w3.org/2000/svg" viewBox="0 0 37 37" shape-rendering="crispEdges">
  <!-- Encodes https://qrcodehub.adbjr.dev/ -->
  <g class="qr"><path d="M4 4h7v1h-7zM13 4h7v1h-7zM23 4h2v1h-2zM26 4h7v1h-7zM4 5h1v1h-1zM10 5h1v1h-1zM17 5h6v1h-6zM26 5h1v1h-1zM32 5h1v1h-1zM4 6h1v1h-1zM6 6h3v1h-3zM10 6h1v1h-1zM12 6h2v1h-2zM15 6h3v1h-3zM19 6h1v1h-1zM22 6h2v1h-2zM26 6h1v1h-1zM28 6h3v1h-3zM32 6h1v1h-1zM4 7h1v1h-1zM6 7h3v1h-3zM10 7h1v1h-1zM12 7h3v1h-3zM18 7h2v1h-2zM21 7h3v1h-3zM26 7h1v1h-1zM28 7h3v1h-3zM32 7h1v1h-1zM4 8h1v1h-1zM6 8h3v1h-3zM10 8h1v1h-1zM12 8h5v1h-5zM19 8h6v1h-6zM26 8h1v1h-1zM28 8h3v1h-3zM32 8h1v1h-1zM4 9h1v1h-1zM10 9h1v1h-1zM12 9h3v1h-3zM21 9h1v1h-1zM26 9h1v1h-1zM32 9h1v1h-1zM4 10h7v1h-7zM12 10h1v1h-1zM14 10h1v1h-1zM16 10h1v1h-1zM18 10h1v1h-1zM20 10h1v1h-1zM22 10h1v1h-1zM24 10h1v1h-1zM26 10h7v1h-7zM12 11h2v1h-2zM15 11h2v1h-2zM18 11h1v1h-1zM20 11h1v1h-1zM22 11h2v1h-2zM4 12h1v1h-1zM6 12h5v1h-5zM14 12h1v1h-1zM16 12h1v1h-1zM20 12h2v1h-2zM26 12h5v1h-5zM5 13h5v1h-5zM15 13h5v1h-5zM22 13h7v1h-7zM32 13h1v1h-1zM5 14h2v1h-2zM8 14h4v1h-4zM13 14h1v1h-1zM15 14h6v1h-6zM27 14h1v1h-1zM6 15h3v1h-3zM11 15h3v1h-3zM15 15h1v1h-1zM17 15h1v1h-1zM19 15h1v1h-1zM22 15h1v1h-1zM24 15h2v1h-2zM27 15h1v1h-1zM29 15h1v1h-1zM31 15h1v1h-1zM6 16h2v1h-2zM9 16h2v1h-2zM13 16h2v1h-2zM16 16h1v1h-1zM18 16h2v1h-2zM21 16h1v1h-1zM29 16h2v1h-2zM4 17h5v1h-5zM14 17h2v1h-2zM19 17h2v1h-2zM22 17h7v1h-7zM32 17h1v1h-1zM4 18h1v1h-1zM6 18h1v1h-1zM9 18h2v1h-2zM12 18h3v1h-3zM24 18h1v1h-1zM27 18h1v1h-1zM29 18h2v1h-2zM5 19h3v1h-3zM9 19h1v1h-1zM11 19h3v1h-3zM15 19h2v1h-2zM18 19h1v1h-1zM20 19h1v1h-1zM28 19h1v1h-1zM31 19h1v1h-1zM5 20h3v1h-3zM10 20h5v1h-5zM20 20h2v1h-2zM29 20h2v1h-2zM4 21h1v1h-1zM8 21h1v1h-1zM11 21h4v1h-4zM16 21h4v1h-4zM23 21h6v1h-6zM30 21h1v1h-1zM32 21h1v1h-1zM4 22h1v1h-1zM7 22h1v1h-1zM9 22h3v1h-3zM14 22h2v1h-2zM17 22h5v1h-5zM25 22h2v1h-2zM30 22h1v1h-1zM4 23h1v1h-1zM6 23h1v1h-1zM8 23h2v1h-2zM12 23h4v1h-4zM17 23h1v1h-1zM19 23h1v1h-1zM22 23h4v1h-4zM28 23h1v1h-1zM31 23h1v1h-1zM4 24h1v1h-1zM8 24h1v1h-1zM10 24h1v1h-1zM12 24h1v1h-1zM14 24h3v1h-3zM18 24h2v1h-2zM21 24h8v1h-8zM30 24h3v1h-3zM12 25h2v1h-2zM15 25h2v1h-2zM19 25h4v1h-4zM24 25h1v1h-1zM28 25h5v1h-5zM4 26h7v1h-7zM14 26h1v1h-1zM16 26h1v1h-1zM21 26h1v1h-1zM23 26h2v1h-2zM26 26h1v1h-1zM28 26h3v1h-3zM4 27h1v1h-1zM10 27h1v1h-1zM12 27h1v1h-1zM14 27h1v1h-1zM18 27h1v1h-1zM20 27h1v1h-1zM24 27h1v1h-1zM28 27h1v1h-1zM31 27h1v1h-1zM4 28h1v1h-1zM6 28h3v1h-3zM10 28h1v1h-1zM12 28h2v1h-2zM15 28h2v1h-2zM20 28h1v1h-1zM22 28h1v1h-1zM24 28h5v1h-5zM30 28h1v1h-1zM32 28h1v1h-1zM4 29h1v1h-1zM6 29h3v1h-3zM10 29h1v1h-1zM12 29h1v1h-1zM15 29h1v1h-1zM17 29h3v1h-3zM21 29h2v1h-2zM24 29h1v1h-1zM27 29h1v1h-1zM29 29h2v1h-2zM4 30h1v1h-1zM6 30h3v1h-3zM10 30h1v1h-1zM12 30h1v1h-1zM17 30h5v1h-5zM26 30h6v1h-6zM4 31h1v1h-1zM10 31h1v1h-1zM14 31h4v1h-4zM19 31h1v1h-1zM21 31h2v1h-2zM24 31h1v1h-1zM27 31h3v1h-3zM31 31h1v1h-1zM4 32h7v1h-7zM12 32h1v1h-1zM14 32h6v1h-6zM23 32h1v1h-1zM28 32h3v1h-3z"  fill-rule="evenodd"/></g>
  <style>
    .qr, .qr path { fill: #000; }
    @media (prefers-color-scheme: dark) {
      .qr, .qr path { fill: #FFF; }
    }
  </style>
</svg>

