<?xml version="1.0" encoding="UTF-8"?>
<svg xmlns="http://www.w3.org/2000/svg" viewBox="0 0 37 37" shape-rendering="crispEdges">
  <!-- Encodes https://qrcodehub.abjr.dev/ -->
  <g class="qr"><path d="M4 4h7v1h-7zM13 4h1v1h-1zM18 4h1v1h-1zM21 4h4v1h-4zM26 4h7v1h-7zM4 5h1v1h-1zM10 5h1v1h-1zM12 5h2v1h-2zM15 5h3v1h-3zM22 5h2v1h-2zM26 5h1v1h-1zM32 5h1v1h-1zM4 6h1v1h-1zM6 6h3v1h-3zM10 6h1v1h-1zM14 6h1v1h-1zM19 6h1v1h-1zM22 6h3v1h-3zM26 6h1v1h-1zM28 6h3v1h-3zM32 6h1v1h-1zM4 7h1v1h-1zM6 7h3v1h-3zM10 7h1v1h-1zM13 7h2v1h-2zM16 7h2v1h-2zM20 7h1v1h-1zM22 7h3v1h-3zM26 7h1v1h-1zM28 7h3v1h-3zM32 7h1v1h-1zM4 8h1v1h-1zM6 8h3v1h-3zM10 8h1v1h-1zM12 8h1v1h-1zM14 8h1v1h-1zM16 8h2v1h-2zM20 8h1v1h-1zM22 8h2v1h-2zM26 8h1v1h-1zM28 8h3v1h-3zM32 8h1v1h-1zM4 9h1v1h-1zM10 9h1v1h-1zM15 9h2v1h-2zM18 9h6v1h-6zM26 9h1v1h-1zM32 9h1v1h-1zM4 10h7v1h-7zM12 10h1v1h-1zM14 10h1v1h-1zM16 10h1v1h-1zM18 10h1v1h-1zM20 10h1v1h-1zM22 10h1v1h-1zM24 10h1v1h-1zM26 10h7v1h-7zM19 11h1v1h-1zM21 11h1v1h-1zM4 12h1v1h-1zM6 12h1v1h-1zM8 12h1v1h-1zM10 12h1v1h-1zM16 12h1v1h-1zM20 12h2v1h-2zM23 12h2v1h-2zM28 12h1v1h-1zM31 12h1v1h-1zM7 13h1v1h-1zM9 13h1v1h-1zM11 13h2v1h-2zM15 13h1v1h-1zM17 13h1v1h-1zM19 13h3v1h-3zM24 13h3v1h-3zM29 13h1v1h-1zM32 13h1v1h-1zM4 14h3v1h-3zM8 14h1v1h-1zM10 14h2v1h-2zM13 14h2v1h-2zM18 14h3v1h-3zM24 14h4v1h-4zM30 14h3v1h-3zM5 15h2v1h-2zM8 15h1v1h-1zM12 15h2v1h-2zM15 15h1v1h-1zM17 15h2v1h-2zM20 15h3v1h-3zM25 15h1v1h-1zM28 15h1v1h-1zM31 15h1v1h-1zM6 16h1v1h-1zM10 16h2v1h-2zM14 16h3v1h-3zM18 16h2v1h-2zM21 16h1v1h-1zM24 16h3v1h-3zM29 16h1v1h-1zM31 16h2v1h-2zM11 17h2v1h-2zM14 17h1v1h-1zM18 17h2v1h-2zM21 17h2v1h-2zM24 17h3v1h-3zM29 17h1v1h-1zM32 17h1v1h-1zM6 18h1v1h-1zM8 18h8v1h-8zM17 18h1v1h-1zM21 18h1v1h-1zM25 18h3v1h-3zM29 18h1v1h-1zM31 18h2v1h-2zM6 19h4v1h-4zM12 19h1v1h-1zM14 19h2v1h-2zM19 19h1v1h-1zM21 19h1v1h-1zM23 19h1v1h-1zM27 19h1v1h-1zM29 19h1v1h-1zM31 19h1v1h-1zM4 20h1v1h-1zM6 20h2v1h-2zM9 20h2v1h-2zM12 20h1v1h-1zM15 20h2v1h-2zM20 20h3v1h-3zM24 20h3v1h-3zM29 20h1v1h-1zM31 20h2v1h-2zM7 21h1v1h-1zM14 21h1v1h-1zM16 21h2v1h-2zM19 21h2v1h-2zM24 21h3v1h-3zM29 21h2v1h-2zM32 21h1v1h-1zM4 22h1v1h-1zM10 22h3v1h-3zM14 22h1v1h-1zM16 22h1v1h-1zM18 22h4v1h-4zM24 22h1v1h-1zM31 22h2v1h-2zM5 23h5v1h-5zM11 23h5v1h-5zM17 23h2v1h-2zM20 23h3v1h-3zM24 23h2v1h-2zM27 23h1v1h-1zM29 23h1v1h-1zM31 23h1v1h-1zM4 24h1v1h-1zM6 24h2v1h-2zM10 24h1v1h-1zM12 24h5v1h-5zM18 24h2v1h-2zM22 24h7v1h-7zM12 25h1v1h-1zM14 25h3v1h-3zM18 25h2v1h-2zM23 25h2v1h-2zM28 25h1v1h-1zM30 25h3v1h-3zM4 26h7v1h-7zM15 26h1v1h-1zM17 26h1v1h-1zM21 26h1v1h-1zM23 26h2v1h-2zM26 26h1v1h-1zM28 26h2v1h-2zM31 26h2v1h-2zM4 27h1v1h-1zM10 27h1v1h-1zM15 27h1v1h-1zM19 27h1v1h-1zM23 27h2v1h-2zM28 27h2v1h-2zM32 27h1v1h-1zM4 28h1v1h-1zM6 28h3v1h-3zM10 28h1v1h-1zM12 28h1v1h-1zM16 28h1v1h-1zM20 28h1v1h-1zM24 28h5v1h-5zM4 29h1v1h-1zM6 29h3v1h-3zM10 29h1v1h-1zM13 29h2v1h-2zM16 29h1v1h-1zM19 29h3v1h-3zM23 29h2v1h-2zM28 29h1v1h-1zM30 29h1v1h-1zM4 30h1v1h-1zM6 30h3v1h-3zM10 30h1v1h-1zM12 30h2v1h-2zM17 30h4v1h-4zM22 30h1v1h-1zM24 30h2v1h-2zM27 30h3v1h-3zM32 30h1v1h-1zM4 31h1v1h-1zM10 31h1v1h-1zM13 31h1v1h-1zM17 31h1v1h-1zM20 31h5v1h-5zM31 31h1v1h-1zM4 32h7v1h-7zM12 32h1v1h-1zM16 32h1v1h-1zM18 32h2v1h-2zM22 32h5v1h-5zM28 32h2v1h-2zM31 32h2v1h-2z"  fill-rule="evenodd"/></g>
  <style>
    .qr, .qr path { fill: #000; }
    @media (prefers-color-scheme: dark) {
      .qr, .qr path { fill: #FFF; }
    }
  </style>
</svg>

